<?xml version="1.0" encoding="UTF-8"?>
<svg version="1.1" xmlns="http://www.w3.org/2000/svg" width="94" height="94" viewBox="0 0 94 94" id="postnl-locatie">
<path d="M0 0 C0.84575089 0.00202423 1.69150177 0.00404846 2.56288147 0.00613403 C3.89205345 0.00350555 3.89205345 0.00350555 5.24807739 0.00082397 C8.19222442 -0.00359583 11.13631191 -0.0006561 14.08045959 0.00271606 C16.11687736 0.00204306 18.15329504 0.00107307 20.18971252 -0.00018311 C24.46368675 -0.00166025 28.73764013 0.00049502 33.01161194 0.00515747 C38.50329498 0.01085477 43.99492916 0.00757585 49.48661041 0.00158501 C53.69348014 -0.00202015 57.90033818 -0.00088223 62.10720825 0.0017128 C64.13271083 0.00238219 66.15821446 0.00155321 68.18371582 -0.00076675 C71.00935189 -0.00329254 73.83490766 0.00054626 76.66053772 0.00613403 C77.5062886 0.0041098 78.35203949 0.00208557 79.22341919 0 C84.99744719 0.02126616 84.99744719 0.02126616 86.11170959 1.13552856 C86.22712234 3.32778437 86.27142389 5.52380104 86.28871155 7.71902466 C86.29528275 8.40685532 86.30185394 9.09468597 86.30862427 9.80335999 C86.32839898 12.088563 86.34002864 14.37370019 86.34999084 16.65896606 C86.35406637 17.43761646 86.3581419 18.21626686 86.36234093 19.01851273 C86.38321888 23.13922106 86.39751342 27.25989592 86.40687561 31.38064575 C86.4179475 35.64373066 86.45235085 39.90629463 86.49204731 44.16919518 C86.51815395 47.44111116 86.52656207 50.71290189 86.53015709 53.98491287 C86.53503806 55.55664211 86.54669487 57.1283652 86.56519508 58.69999313 C86.58946318 60.89816668 86.58864519 63.0949778 86.5816803 65.29324341 C86.58754654 66.54487274 86.59341278 67.79650208 86.59945679 69.08605957 C86.11170959 72.13552856 86.11170959 72.13552856 84.20733643 74.06317139 C82.11170959 75.13552856 82.11170959 75.13552856 80.11170959 75.13552856 C80.11170959 52.36552856 80.11170959 29.59552856 80.11170959 6.13552856 C53.38170959 6.13552856 26.65170959 6.13552856 -0.88829041 6.13552856 C-0.88829041 30.88552856 -0.88829041 55.63552856 -0.88829041 81.13552856 C2.74170959 81.13552856 6.37170959 81.13552856 10.11170959 81.13552856 C10.10647278 79.9593396 10.10123596 78.78315063 10.09584045 77.57131958 C10.07779297 73.22350826 10.06627852 68.87570027 10.05677795 64.52786255 C10.05173715 62.64309127 10.04490461 60.75832392 10.03627014 58.87356567 C10.02419342 56.17051221 10.01847891 53.46751026 10.01405334 50.76443481 C10.00889206 49.91651871 10.00373077 49.0686026 9.99841309 48.19499207 C9.99821765 46.17481788 10.04964749 44.15474922 10.11170959 42.13552856 C11.11170959 41.13552856 11.11170959 41.13552856 13.39590454 41.01527405 C14.40628281 41.01749466 15.41666107 41.01971527 16.45765686 41.02200317 C18.16931786 41.02211647 18.16931786 41.02211647 19.91555786 41.02223206 C21.157202 41.02739334 22.39884613 41.03255463 23.67811584 41.03787231 C25.57375526 41.03999474 25.57375526 41.03999474 27.50769043 41.04216003 C30.87295848 41.04682274 34.23815949 41.05581376 37.60340881 41.06686401 C41.03520629 41.0770801 44.46701068 41.08165808 47.89881897 41.08670044 C54.63646784 41.09775476 61.37408484 41.11451146 68.11170959 41.13552856 C69.75116922 44.41444782 69.23201137 48.0416639 69.20936584 51.64334106 C69.2079509 52.48396088 69.20653595 53.32458069 69.20507812 54.19067383 C69.19947197 56.88066131 69.18691846 59.57056615 69.17420959 62.26052856 C69.16919539 64.08214195 69.16463234 65.90375663 69.16053772 67.72537231 C69.14950054 72.19545634 69.13223179 76.66547843 69.11170959 81.13552856 C70.08752991 81.08912231 71.06335022 81.04271606 72.06874084 80.99490356 C73.34104553 80.95880981 74.61335022 80.92271606 75.92420959 80.88552856 C77.18877991 80.83912231 78.45335022 80.79271606 79.75624084 80.74490356 C83.11170959 81.13552856 83.11170959 81.13552856 85.06092834 83.02615356 C86.11170959 85.13552856 86.11170959 85.13552856 86.11170959 87.13552856 C74.13367401 87.15865046 62.15564369 87.17644287 50.17759037 87.18734074 C44.61631548 87.1925699 39.0550558 87.19966815 33.49378967 87.21096802 C28.13163541 87.22179571 22.76949582 87.22780515 17.40733147 87.23040581 C15.35670681 87.23226027 13.306083 87.23588128 11.25546455 87.24125862 C8.39380756 87.24846749 5.53221202 87.24951957 2.67054749 87.24905396 C1.81387482 87.25264923 0.95720215 87.25624451 0.0745697 87.25994873 C-5.77423824 87.24958073 -5.77423824 87.24958073 -6.88829041 86.13552856 C-6.98872312 83.49352795 -7.0244589 80.87764266 -7.01768494 78.23513794 C-7.01943726 77.40754471 -7.02118958 76.57995148 -7.022995 75.72727966 C-7.02741434 72.97792495 -7.02447524 70.22863399 -7.02110291 67.47927856 C-7.02177592 65.57738228 -7.02274593 63.67548608 -7.02400208 61.77359009 C-7.02547916 57.78208601 -7.02332415 53.79060427 -7.0186615 49.79910278 C-7.01296421 44.6706235 -7.01624315 39.54219654 -7.02223396 34.41371918 C-7.02583929 30.48478803 -7.02470112 26.55586938 -7.02210617 22.62693787 C-7.02143682 20.73540745 -7.02226559 18.84387591 -7.02458572 16.9523468 C-7.02711179 14.3135068 -7.02327232 11.67475275 -7.01768494 9.03591919 C-7.01970917 8.24627274 -7.0217334 7.45662628 -7.02381897 6.64305115 C-6.99771221 0.02214359 -6.58351631 0.02424756 0 0 Z M16.11170959 47.13552856 C16.02323217 49.65646933 15.99643658 52.14983749 16.01405334 54.67068481 C16.01546829 55.42393539 16.01688324 56.17718597 16.01834106 56.95326233 C16.02395584 59.36822416 16.03651077 61.78309457 16.04920959 64.19802856 C16.0542227 65.83149077 16.05878593 67.46495442 16.06288147 69.09841919 C16.07308084 73.11085287 16.09265315 77.12308792 16.11170959 81.13552856 C23.04170959 81.13552856 29.97170959 81.13552856 37.11170959 81.13552856 C37.1346198 76.31165789 37.15454646 71.48797468 37.16664124 66.66409302 C37.17168133 65.02183392 37.17851338 63.37957933 37.18714905 61.73733521 C37.19922885 59.38177378 37.20494098 57.02627148 37.20936584 54.67068481 C37.21452713 53.9321376 37.21968842 53.19359039 37.2250061 52.43266296 C37.22520209 50.66654769 37.17365678 48.90055711 37.11170959 47.13552856 C35.55564209 45.57946106 34.05213588 46.00582088 31.89295959 46.00271606 C31.04346741 46.001427 30.19397522 46.00013794 29.31874084 45.99880981 C28.42542053 46.002677 27.53210022 46.00654419 26.61170959 46.01052856 C25.27172913 46.00472778 25.27172913 46.00472778 23.90467834 45.99880981 C22.63044006 46.00074341 22.63044006 46.00074341 21.33045959 46.00271606 C20.1538678 46.00440796 20.1538678 46.00440796 18.95350647 46.00613403 C17.09417972 45.93445415 17.09417972 45.93445415 16.11170959 47.13552856 Z M42.11170959 47.13552856 C42.02323217 49.65646933 41.99643658 52.14983749 42.01405334 54.67068481 C42.01546829 55.42393539 42.01688324 56.17718597 42.01834106 56.95326233 C42.02395584 59.36822416 42.03651077 61.78309457 42.04920959 64.19802856 C42.0542227 65.83149077 42.05878593 67.46495442 42.06288147 69.09841919 C42.07308084 73.11085287 42.09265315 77.12308792 42.11170959 81.13552856 C49.04170959 81.13552856 55.97170959 81.13552856 63.11170959 81.13552856 C63.1346198 76.31165789 63.15454646 71.48797468 63.16664124 66.66409302 C63.17168133 65.02183392 63.17851338 63.37957933 63.18714905 61.73733521 C63.19922885 59.38177378 63.20494098 57.02627148 63.20936584 54.67068481 C63.21452713 53.9321376 63.21968842 53.19359039 63.2250061 52.43266296 C63.22520209 50.66654769 63.17365678 48.90055711 63.11170959 47.13552856 C61.55564209 45.57946106 60.05213588 46.00582088 57.89295959 46.00271606 C57.04346741 46.001427 56.19397522 46.00013794 55.31874084 45.99880981 C54.42542053 46.002677 53.53210022 46.00654419 52.61170959 46.01052856 C51.27172913 46.00472778 51.27172913 46.00472778 49.90467834 45.99880981 C48.63044006 46.00074341 48.63044006 46.00074341 47.33045959 46.00271606 C46.1538678 46.00440796 46.1538678 46.00440796 44.95350647 46.00613403 C43.09417972 45.93445415 43.09417972 45.93445415 42.11170959 47.13552856 Z " fill="#000000" transform="translate(7.8882904052734375,5.864471435546875)"/>
<path d="M0 0 C1.65 0 3.3 0 5 0 C5 1.65 5 3.3 5 5 C9.11577983 3.71282249 9.11577983 3.71282249 13 1.875 C15.71413383 0.68756645 18.07421213 0.86700964 21 1 C21.33 2.32 21.66 3.64 22 5 C22.50789063 4.71125 23.01578125 4.4225 23.5390625 4.125 C27.87808125 1.78485506 30.93935183 0.49393518 36 1 C37 4 37 4 36 8 C42.435 7.505 42.435 7.505 49 7 C49.495 8.98 49.495 8.98 50 11 C47.70102502 13.29897498 46.84588013 13.39476302 43.71875 13.88671875 C42.87699219 14.02013672 42.03523438 14.15355469 41.16796875 14.29101562 C40.28753906 14.42185547 39.40710938 14.55269531 38.5 14.6875 C37.61957031 14.82994141 36.73914062 14.97238281 35.83203125 15.11914062 C29.26093201 16.13046601 29.26093201 16.13046601 27 15 C26.375 12.9375 26.375 12.9375 26 11 C25.40832031 11.28875 24.81664063 11.5775 24.20703125 11.875 C16.35852373 15.56239016 16.35852373 15.56239016 12 15 C11.34 13.68 10.68 12.36 10 11 C9.11248047 11.45052734 9.11248047 11.45052734 8.20703125 11.91015625 C1.67238422 15.05488851 1.67238422 15.05488851 -2.0625 14.75 C-2.701875 14.5025 -3.34125 14.255 -4 14 C-3.36843005 8.94744036 -1.86540627 4.70406799 0 0 Z " fill="#000000" transform="translate(26,18)"/>
</svg>
