<?xml version="1.0" encoding="UTF-8"?>
<svg version="1.1" xmlns="http://www.w3.org/2000/svg" width="93" height="94" viewBox="0 0 93 94" id="postnl-pakket-automaat">
<path d="M0 0 C3.12129083 1.21046046 5.89996922 2.5974794 8.8059082 4.25415039 C9.81975586 4.8297168 10.83360352 5.4052832 11.87817383 5.99829102 C12.92038086 6.59706055 13.96258789 7.19583008 15.03637695 7.81274414 C16.09791992 8.41538086 17.15946289 9.01801758 18.25317383 9.63891602 C26.06672015 14.09308733 26.06672015 14.09308733 27.22387695 15.25024414 C27.31154808 17.32286491 27.33083568 19.39844708 27.3215332 21.47290039 C27.31831055 22.73295898 27.31508789 23.99301758 27.31176758 25.29125977 C27.30341099 26.63175523 27.29494603 27.97225002 27.28637695 29.31274414 C27.28136355 30.65714356 27.27680037 32.00154474 27.27270508 33.34594727 C27.26087183 36.64742355 27.24438666 39.94881217 27.22387695 43.25024414 C30.85387695 43.25024414 34.48387695 43.25024414 38.22387695 43.25024414 C38.22387695 30.71024414 38.22387695 18.17024414 38.22387695 5.25024414 C33.60387695 5.25024414 28.98387695 5.25024414 24.22387695 5.25024414 C25.21387695 3.27024414 26.20387695 1.29024414 27.22387695 -0.74975586 C34.8819491 -0.79604754 42.54000679 -0.83160889 50.19818687 -0.8533802 C53.75400094 -0.8638281 57.30971945 -0.87800545 60.86547852 -0.90063477 C64.95109995 -0.92647418 69.03662064 -0.9362203 73.12231445 -0.94506836 C74.40254486 -0.95539093 75.68277527 -0.9657135 77.00180054 -0.97634888 C78.18287384 -0.97649994 79.36394714 -0.976651 80.58081055 -0.97680664 C81.62449799 -0.98124786 82.66818542 -0.98568909 83.74349976 -0.99026489 C86.22387695 -0.74975586 86.22387695 -0.74975586 88.22387695 1.25024414 C88.41733746 4.10673279 88.4860766 6.86591022 88.46679688 9.72314453 C88.46869522 10.59965164 88.47059357 11.47615875 88.47254944 12.37922668 C88.47626368 15.28554133 88.4655446 18.19160784 88.4543457 21.09790039 C88.45315425 23.11046825 88.45270067 25.12303667 88.45295715 27.13560486 C88.45139121 31.35655185 88.44309252 35.57741415 88.4296875 39.79833984 C88.41268662 45.22161926 88.4088734 50.64480561 88.40963268 56.06810856 C88.40936139 60.22436927 88.40388696 64.38060943 88.39663124 68.53686333 C88.39343872 70.53724449 88.39147581 72.53762798 88.39073753 74.53801155 C88.38858074 77.32762788 88.37985125 80.11714343 88.36914062 82.90673828 C88.36959381 83.74156738 88.370047 84.57639648 88.37051392 85.43652344 C88.33835125 91.13576984 88.33835125 91.13576984 87.22387695 92.25024414 C84.39884365 92.35077922 81.5982241 92.38640131 78.77270508 92.37963867 C77.88659042 92.38139099 77.00047577 92.38314331 76.08750916 92.38494873 C73.14336213 92.38936854 70.19927464 92.38642881 67.25512695 92.38305664 C65.21870919 92.38372964 63.18229151 92.38469964 61.14587402 92.38595581 C56.87189979 92.38743296 52.59794642 92.38527769 48.32397461 92.38061523 C42.83229156 92.37491794 37.34065739 92.37819685 31.84897614 92.3841877 C27.64210641 92.38779286 23.43524836 92.38665493 19.2283783 92.38405991 C17.20287572 92.38339051 15.17737209 92.38421949 13.15187073 92.38653946 C10.32623466 92.38906524 7.50067888 92.38522644 4.67504883 92.37963867 C3.4064225 92.38267502 3.4064225 92.38267502 2.11216736 92.38577271 C-3.66186064 92.36450655 -3.66186064 92.36450655 -4.77612305 91.25024414 C-4.87133211 88.41983742 -4.90165936 85.61389422 -4.88964844 82.78320312 C-4.88979446 81.89548218 -4.88994049 81.00776123 -4.89009094 80.09313965 C-4.88939148 77.1441813 -4.88159753 74.19528527 -4.8737793 71.24633789 C-4.87191524 69.20752497 -4.87049128 67.1687116 -4.86949158 65.12989807 C-4.86566545 59.7523984 -4.85583437 54.37492556 -4.8447876 48.99743652 C-4.8345755 43.51465213 -4.82999439 38.03186342 -4.82495117 32.54907227 C-4.81421218 21.78278441 -4.79713464 11.0165165 -4.77612305 0.25024414 C-2.77612305 -0.74975586 -2.77612305 -0.74975586 0 0 Z M44.22387695 5.25024414 C44.20325195 11.33461914 44.18262695 17.41899414 44.16137695 23.68774414 C44.15227295 25.61030029 44.14316895 27.53285645 44.13378906 29.51367188 C44.13086988 31.0287265 44.12832133 32.54378191 44.1262207 34.05883789 C44.12110474 34.85261841 44.11598877 35.64639893 44.11071777 36.4642334 C44.11040739 38.39327244 44.16151802 40.32221326 44.22387695 42.25024414 C46.01218144 44.03854862 48.41968847 43.37873125 50.80029297 43.38919067 C51.57945068 43.38716644 52.3586084 43.38514221 53.16137695 43.38305664 C54.35428345 43.38449173 54.35428345 43.38449173 55.57128906 43.38595581 C57.25594156 43.38663757 58.94059666 43.38478357 60.62524414 43.38061523 C63.21286892 43.37526689 65.80032011 43.38056033 68.38793945 43.38696289 C70.02075234 43.38630211 71.65356512 43.38502094 73.28637695 43.38305664 C74.06553467 43.38508087 74.84469238 43.3871051 75.64746094 43.38919067 C79.23181895 43.70863994 79.23181895 43.70863994 82.22387695 42.25024414 C82.3124557 39.51154172 82.33918402 36.79749431 82.3215332 34.05883789 C82.32052612 33.33249146 82.31951904 32.60614502 82.31848145 31.85778809 C82.31323412 29.13442413 82.29927295 26.41108261 82.28637695 23.68774414 C82.26575195 17.60336914 82.24512695 11.51899414 82.22387695 5.25024414 C69.68387695 5.25024414 57.14387695 5.25024414 44.22387695 5.25024414 Z M1.22387695 8.25024414 C0.99139109 12.81188496 0.84939552 17.37200633 0.72387695 21.93774414 C0.6568457 23.23131836 0.58981445 24.52489258 0.52075195 25.85766602 C0.15061197 32.33413115 0.15061197 32.33413115 2.6184082 38.04956055 C4.87600932 39.58803685 4.87600932 39.58803685 9.22387695 41.25024414 C13.18387695 43.23024414 17.14387695 45.21024414 21.22387695 47.25024414 C21.22387695 37.68024414 21.22387695 28.11024414 21.22387695 18.25024414 C18.29512695 16.60024414 15.36637695 14.95024414 12.34887695 13.25024414 C10.96659912 12.46713867 10.96659912 12.46713867 9.55639648 11.66821289 C8.83049316 11.2621582 8.10458984 10.85610352 7.35668945 10.43774414 C6.61306152 10.01879883 5.86943359 9.59985352 5.10327148 9.16821289 C3.27296229 8.10394964 3.27296229 8.10394964 1.22387695 8.25024414 Z M1.22387695 43.25024414 C1.22387695 57.44024414 1.22387695 71.63024414 1.22387695 86.25024414 C13.76387695 86.25024414 26.30387695 86.25024414 39.22387695 86.25024414 C39.22387695 74.04024414 39.22387695 61.83024414 39.22387695 49.25024414 C35.26387695 49.25024414 31.30387695 49.25024414 27.22387695 49.25024414 C27.22387695 50.90024414 27.22387695 52.55024414 27.22387695 54.25024414 C21.18067106 53.78538215 16.6133951 51.0506262 11.41137695 48.18774414 C9.69738007 47.25779616 7.98258056 46.32932543 6.2668457 45.40258789 C5.1379895 44.78371704 5.1379895 44.78371704 3.98632812 44.15234375 C2.40549916 43.17430613 2.40549916 43.17430613 1.22387695 43.25024414 Z M44.22387695 49.25024414 C44.22387695 61.46024414 44.22387695 73.67024414 44.22387695 86.25024414 C56.76387695 86.25024414 69.30387695 86.25024414 82.22387695 86.25024414 C82.22387695 74.04024414 82.22387695 61.83024414 82.22387695 49.25024414 C69.68387695 49.25024414 57.14387695 49.25024414 44.22387695 49.25024414 Z " fill="#000000" transform="translate(4.776123046875,0.749755859375)"/>
<path d="M0 0 C2.0625 0.4375 2.0625 0.4375 4 1 C4 2.32 4 3.64 4 5 C2.68 5.33 1.36 5.66 0 6 C-0.38218767 4.34385343 -0.71395102 2.67542976 -1 1 C-0.67 0.67 -0.34 0.34 0 0 Z " fill="#000000" transform="translate(77,22)"/>
<path d="M0 0 C1.32 0.66 2.64 1.32 4 2 C3.67 3.32 3.34 4.64 3 6 C1.35 5.67 -0.3 5.34 -2 5 C-1.125 1.125 -1.125 1.125 0 0 Z " fill="#000000" transform="translate(34,65)"/>
<path d="M0 0 C0.99 0.33 1.98 0.66 3 1 C2.67 2.65 2.34 4.3 2 6 C0.68 6 -0.64 6 -2 6 C-2 4.35 -2 2.7 -2 1 C-1.34 0.67 -0.68 0.34 0 0 Z " fill="#000000" transform="translate(78,65)"/>
</svg>
