<?xml version="1.0" encoding="utf-8"?>
<!-- Generator: Adobe Illustrator 27.5.0, SVG Export Plug-In . SVG Version: 6.00 Build 0)  -->
<svg version="1.1" xmlns="http://www.w3.org/2000/svg" xmlns:xlink="http://www.w3.org/1999/xlink" x="0px" y="0px"
	 viewBox="0 0 382.7 382.7" style="enable-background:new 0 0 382.7 382.7;" xml:space="preserve">
<style type="text/css">
	.st0{fill:#F56900;}
</style>
<g id="Logo">
	<path class="st0" d="M145.6,175c-11.4,0-20.7,6.4-20.7,20.7c0,14,9.2,20.7,20.7,20.7c11.4,0,20.6-6.7,20.6-20.6
		C166.3,181.4,157.1,175,145.6,175z M145.6,206.5c-5.1,0-8.9-3.9-8.9-10.8c0-7.5,3.8-10.8,8.9-10.8c5.1,0,8.9,3.3,8.9,10.8
		C154.6,202.6,150.7,206.5,145.6,206.5z M220.1,175.4L220.1,175.4c0,0.2,0.2,0.4,0.4,0.4h8.7c0.7,0,1.2,0.6,1.2,1.2l0,7.5h0l0,0
		c0,0.2-0.2,0.4-0.4,0.4l-9.6,0l0,0c-0.2,0-0.4,0.2-0.4,0.4v14.6c0,5.6,2.1,7.3,5.7,7.3c1.7,0,4.3-1,4.6-1c0.2,0,0.4,0.2,0.4,0.4
		v7.2l0,0l0,0c0,0.5-0.3,0.9-0.6,1.1c-1.6,0.9-4.2,1.4-8.2,1.4c-6.8,0-13.2-3.4-13.2-14.5v-25.4c0-2.2,0.9-4.4,2.3-5.9
		c1.8-2,7.8-5.9,8.6-5.9c0.3,0,0.5,0.1,0.5,0.4L220.1,175.4z M81.9,177.1c0-0.7,0.6-1.3,1.3-1.3h15.1c14.8,0,22.5,8.9,22.5,20.4
		c0,11.5-8.6,19.5-22.7,19.5h-4.4c-0.2,0-0.4,0.2-0.4,0.4v18.6c0,0.3-0.1,0.4-0.5,0.4c-0.8,0-6.7-3.8-8.6-5.9
		c-1.4-1.5-2.3-3.7-2.3-5.9V177.1z M109.5,195.6c0-4.9-3.2-9.5-11.5-9.5l-4.4,0c-0.2,0-0.4,0.2-0.4,0.4v18.4c0,0.2,0.2,0.4,0.4,0.4
		h4.7C108.2,205.3,109.5,198.4,109.5,195.6z M202.9,203.3c0,8.4-6,13-17.8,13c-6.7,0-13.8-2.4-13.9-2.4c-0.5-0.2-0.9-0.7-0.9-1.2
		v-7.8c0-0.3,0.2-0.5,0.5-0.5c0,0,0.1,0,0.2,0c2.5,0.8,10.7,2.8,15,2.8c2.6,0,3.9-0.4,4.8-1.2c0.6-0.6,0.9-1.2,0.9-2
		c0-2.6-3.2-3.3-6.3-4c-0.4-0.1-0.2,0-1.3-0.3c-6.8-1.6-14-3.3-14-12c0-3.9,1.6-7.1,4.7-9.4c3-2.2,7.4-3.4,12.7-3.4
		c4.7,0,10.3,1.6,12.2,2.2c0.6,0.2,0.9,0.7,0.9,1.2l0,7.8c0,0.4-0.4,0.5-0.7,0.4c-5.4-2-10.3-2.7-13.9-2.7c-2.8,0-4.6,1.2-4.6,3.1
		c0,2.2,2.7,2.8,6,3.5c0.4,0.1,2.2,0.5,2.7,0.6c2.8,0.6,5.6,1.2,8,2.8C201.3,196.1,202.9,199.1,202.9,203.3z M263.9,215.5
		c-0.1,0-0.2-0.1-0.2-0.2l0-23.7c0-5.3-1.8-7.5-6-7.5c-1.5,0-3.3,0.6-5.1,1.6c-1.8,1-3.2,1.9-3.7,2.2c-0.1,0.1-0.3,0.3-0.3,0.5v27
		c0,0.1-0.1,0.2-0.2,0.2h-10.6c-0.1,0-0.2-0.1-0.2-0.2v-38.2c0-0.6,0.5-1.1,1.1-1.1l9.7,0c0.1,0,0.2,0.1,0.2,0.2v3
		c0,0.2,0.1,0.3,0.3,0.3c0.1,0,0.2,0,0.2-0.1l0.3-0.2c1.2-0.9,3-1.9,4.2-2.4c2.7-1,5.5-1.6,7.8-1.6c8.6,0,13.2,5,13.2,14.4l0,25.7
		c0,0.1-0.1,0.2-0.2,0.2H263.9z M283.4,215.5c-0.1,0-0.2-0.1-0.2-0.2l0-58.5c0-0.2,0-0.3,0.3-0.3c0.7,0,6.6,3.7,8.5,5.8
		c1.4,1.6,2.2,3.7,2.2,5.8l0,47.1c0,0.1-0.1,0.2-0.2,0.2H283.4z M145.6,113.8c-0.2,0-0.4,0.1-0.6,0.2c-1.8,1.3-3.4,2.9-4.7,4.6
		c-0.4,0.5-0.4,1,0,1.5c1.3,1.7,2.8,3.2,4.4,4.4c0.3,0.2,0.6,0.4,0.9,0.4c0.3,0,0.6-0.1,0.9-0.4c1.6-1.3,3.1-2.8,4.4-4.4
		c0.4-0.5,0.4-1.1,0-1.5c-1.3-1.7-2.9-3.3-4.6-4.6C146,113.9,145.8,113.8,145.6,113.8L145.6,113.8z M145.6,128.2
		c-0.9,0-1.8,0-2.7,0.1h0c-0.3,0-0.6,0.1-0.9,0.4c-0.3,0.3-0.5,0.9-0.5,1.2c0,1.8,0.2,11.5,0.2,17.6c0,3,0.1,5.1,0.1,5.2
		c0,0.4,0.3,1.4,1.3,1.4h4.8c0.7,0,1.2-0.5,1.3-1.3c0,0,0,0,0-0.1c0-0.1,0.1-8.4,0.3-22.5l0-0.3c0-0.3-0.1-0.8-0.5-1.2
		c-0.2-0.2-0.5-0.4-0.9-0.4C147.4,128.2,146.5,128.2,145.6,128.2L145.6,128.2z M157.8,129.5c-1.1,0-2,0.6-2.5,1.7
		c-1.4,3.1-2.4,5.9-3.4,9.4c-0.1,0.4-0.1,0.7,0.1,1c0.1,0.2,0.4,0.4,0.9,0.4h3.7c0.9,0,1.2-0.4,1.3-0.8c0.6-2.1,1.1-3.3,1.8-5
		c0,0,0.1-0.1,0.3-0.1c0.1,0,0.2,0,0.3,0l1.9,0.6c0.2,0.1,0.4,0.3,0.4,0.4c0.1,0.3,0.2,0.7,0.1,1c0,0.1-3.8,10.7-5,14.3
		c-0.2,0.5-0.1,1,0.1,1.3c0.2,0.3,0.6,0.4,1.1,0.4h4.6c0.8,0,1.3-0.3,1.5-0.9c0.2-0.5,0.4-1.1,0.7-1.9l0.1-0.3
		c1.4-3.9,3.5-9.8,3.9-11.4c0.8-2.8,1-5.9-3.2-7.5c-1.3-0.5-2.6-0.9-3.7-1.3c-1.5-0.4-2.9-0.8-4.1-1.1l-0.2,0
		C158.3,129.5,158,129.5,157.8,129.5L157.8,129.5z M133.5,129.5c-0.3,0-0.5,0-0.8,0.1l-0.2,0c-1.2,0.3-2.6,0.6-4.1,1.1
		c-1.1,0.3-2.4,0.8-3.7,1.3c-4.2,1.5-3.9,4.6-3.2,7.5c0.4,1.6,2.4,7.1,4.1,11.7c0.3,0.8,0.5,1.5,0.7,1.9c0.2,0.6,0.7,0.9,1.5,0.9
		h4.6c0.6,0,0.9-0.2,1.1-0.4c0.2-0.3,0.3-0.7,0.1-1.3c-1.1-3.5-5-14.2-5-14.3c-0.1-0.3-0.1-0.7,0.1-1c0.1-0.1,0.2-0.3,0.4-0.4
		l1.9-0.6c0.1,0,0.2,0,0.2,0c0.2,0,0.3,0.1,0.3,0.1c0.8,1.8,1.2,3,1.8,5c0.1,0.4,0.4,0.8,1.3,0.8h3.7c0.4,0,0.7-0.1,0.9-0.4
		c0.2-0.2,0.2-0.6,0.1-1c-1-3.5-2-6.3-3.4-9.4C135.7,130.7,135,129.5,133.5,129.5L133.5,129.5z M162.7,157.5h-34
		c-1.2,0-2.2,1-2.2,2.2v4.3c0,1.3,0.6,2,1.8,2h34.9c1.2,0,1.8-0.6,1.8-2v-4.3C164.9,158.5,163.8,157.5,162.7,157.5L162.7,157.5z
		 M326.4,190.6c0-23.9-44.9-65.2-92.7-91.6C178.6,68.6,115.9,50.7,95.2,62.1c-23.6,13-36.5,77.9-36.5,128.5
		c0,51,12.2,115.1,36.5,128.5c22,12.1,82.1-5.8,138.6-36.9C282.3,255.5,326.4,215.7,326.4,190.6z M111.7,47.1
		c34.8,0,90.6,22,127.6,42.4c21.2,11.7,45.3,28.8,63.9,46.1c17.9,16.6,34.7,37.4,34.8,55c0,16.6-13.5,36.1-35.3,56.1
		c-18.4,16.9-42.4,33.5-63.4,45.1c-35.8,19.7-90.4,42.8-126.4,42.8c-9.8,0-17.8-1.7-23.9-5c-15.9-8.8-26.1-32.4-32.2-55.6
		c-6.5-24.9-9.8-54.8-9.8-83.3c0-27.9,3.6-57.9,9.9-82.3c7.6-29.7,18.7-49.3,32.1-56.7C94.7,48.6,102.3,47.1,111.7,47.1L111.7,47.1"
		/>
</g>
<g id="Layer_2">
</g>
</svg>
