<?xml version="1.0" encoding="UTF-8"?>
<svg id="Logo" xmlns="http://www.w3.org/2000/svg" viewBox="0 0 290.88 287.53">
  <defs>
    <style>
      .cls-1 {
        fill: #fff;
      }
    </style>
  </defs>
  <path class="cls-1" d="m98.52,127.98c-11.45,0-20.66,6.35-20.66,20.65s9.21,20.65,20.66,20.65,20.64-6.67,20.64-20.65-9.23-20.66-20.64-20.66Zm0,31.48c-5.12,0-8.95-3.89-8.95-10.83,0-7.55,3.83-10.85,8.95-10.85s8.93,3.3,8.93,10.85c0,6.94-3.83,10.83-8.93,10.83Zm74.41-31.12h0c0,.21.17.38.38.38h8.69c.69,0,1.25.57,1.25,1.24v7.52s0,0,0,0h0c0,.22-.17.39-.38.39h-9.56c-.21,0-.38.17-.38.39v14.6c0,5.6,2.12,7.26,5.66,7.26,1.66,0,4.27-1.02,4.65-1.02.21,0,.39.17.39.38v7.2h0c0,.54-.31.92-.65,1.1-1.58.85-4.23,1.43-8.15,1.43-6.85,0-13.21-3.45-13.21-14.46v-25.39c0-2.25.88-4.39,2.27-5.91,1.85-2.04,7.8-5.86,8.57-5.86.33,0,.47.1.47.41v10.33Zm-138.17,1.66c0-.71.57-1.27,1.28-1.27h15.06c14.79,0,22.45,8.88,22.45,20.37s-8.57,19.46-22.69,19.46h-4.4c-.21,0-.39.17-.39.39v18.63c0,.31-.13.41-.47.41-.77,0-6.72-3.82-8.57-5.86-1.39-1.53-2.27-3.67-2.27-5.91v-46.22Zm27.62,18.53c0-4.89-3.16-9.47-11.51-9.47h-4.43c-.21,0-.38.17-.38.38v18.38c0,.21.17.39.38.39h4.65c9.94,0,11.28-6.91,11.28-9.69Zm93.41,7.76c0,8.39-6.03,13-17.79,13-6.73,0-13.84-2.36-13.9-2.38-.53-.2-.88-.68-.88-1.23v-7.82c0-.26.22-.46.49-.46.04,0,.15.02.16.03,2.51.81,10.65,2.83,14.98,2.83,2.56,0,3.9-.38,4.76-1.24.59-.59.86-1.22.86-1.98,0-2.56-3.21-3.27-6.32-3.95-.39-.08-.22-.04-1.27-.29-6.81-1.61-13.99-3.27-13.99-12.04,0-3.89,1.63-7.12,4.68-9.36,3.04-2.24,7.43-3.41,12.69-3.41,4.73,0,10.34,1.56,12.22,2.16.59.19.93.71.93,1.24v7.8c-.02.36-.4.53-.66.43-5.39-2.02-10.32-2.73-13.86-2.73-2.81,0-4.63,1.22-4.63,3.11,0,2.18,2.66,2.77,6.03,3.53.41.09,2.25.51,2.73.61,2.76.61,5.61,1.23,7.95,2.76,3.22,2.12,4.8,5.19,4.8,9.39Zm60.97,12.13c-.13,0-.24-.11-.24-.24v-23.73c0-5.27-1.79-7.52-5.99-7.52-1.5,0-3.31.56-5.11,1.58-1.79,1.04-3.19,1.9-3.69,2.2-.14.09-.29.33-.29.52v26.96c0,.13-.11.24-.24.24h-10.58c-.13,0-.25-.11-.25-.24v-38.18c0-.62.51-1.13,1.14-1.13h9.7c.13,0,.25.11.25.24v3c0,.18.15.33.33.33.07,0,.16-.04.19-.06l.32-.24c1.18-.91,3-1.94,4.22-2.41,2.65-1.01,5.51-1.6,7.83-1.6,8.65,0,13.22,4.97,13.22,14.36v25.67c0,.14-.1.24-.24.24h-10.56Zm19.53,0c-.13,0-.24-.11-.24-.24v-58.47c0-.21.04-.27.32-.27.66,0,6.56,3.71,8.47,5.81,1.42,1.56,2.23,3.68,2.23,5.82v47.11c0,.13-.1.24-.24.24h-10.54ZM98.51,66.79c-.2,0-.39.06-.62.2-1.78,1.34-3.35,2.89-4.71,4.63-.4.45-.4.97.02,1.51,1.29,1.67,2.77,3.16,4.39,4.43.3.24.6.35.91.35s.61-.12.91-.36c1.62-1.27,3.1-2.76,4.39-4.42.42-.54.42-1.06,0-1.54-1.33-1.72-2.9-3.27-4.64-4.58-.27-.17-.46-.22-.66-.22h0Zm0,14.34c-.85,0-1.75.02-2.68.06h0c-.33,0-.63.12-.86.36-.33.33-.46.86-.46,1.21.03,1.83.15,11.49.23,17.64.04,2.97.06,5.12.07,5.19,0,.44.32,1.36,1.31,1.36h4.79c.7,0,1.2-.5,1.3-1.3,0-.02,0-.04,0-.06,0-.15.1-8.36.29-22.53v-.28c0-.27-.08-.85-.45-1.22-.23-.24-.53-.35-.88-.35-.91-.04-1.81-.06-2.66-.06h0Zm12.15,1.31c-1.1,0-2,.61-2.47,1.66-1.38,3.07-2.38,5.87-3.35,9.35-.11.41-.07.75.12,1,.13.17.39.37.91.37h3.74c.85,0,1.16-.45,1.28-.82.61-2.08,1.05-3.29,1.83-5.01,0-.02.07-.13.3-.13.09,0,.18.01.27.04l1.9.63c.22.08.36.27.43.42.14.29.16.68.06.97-.02.06-3.84,10.74-4.98,14.29-.17.55-.15.98.08,1.3.21.29.57.44,1.07.44h4.63c.76,0,1.26-.3,1.48-.91.17-.46.41-1.13.69-1.92l.11-.3c1.39-3.88,3.5-9.76,3.95-11.43.76-2.83.97-5.93-3.18-7.47-1.32-.49-2.57-.91-3.72-1.26-1.46-.45-2.87-.78-4.11-1.07l-.15-.04c-.31-.07-.59-.11-.86-.11h0Zm-24.3,0c-.27,0-.55.03-.82.1l-.19.04c-1.24.29-2.64.62-4.1,1.07-1.14.35-2.39.77-3.72,1.26-4.16,1.54-3.94,4.64-3.18,7.47.43,1.61,2.39,7.12,4.05,11.73.29.79.52,1.46.69,1.92.22.61.72.91,1.48.91h4.63c.62,0,.92-.24,1.07-.44.23-.31.25-.74.08-1.29-1.13-3.51-4.95-14.2-4.99-14.3-.1-.29-.08-.67.06-.97.07-.15.2-.34.44-.42l1.91-.63c.07-.02.16-.03.25-.03.19,0,.28.08.3.13.79,1.76,1.24,2.98,1.83,5.01.11.37.42.82,1.27.82h3.75c.41,0,.72-.12.91-.37.19-.25.23-.58.11-.99-.98-3.5-1.98-6.3-3.35-9.36-.22-.5-.91-1.66-2.47-1.66h0Zm29.18,28.06h-34.01c-1.19,0-2.2,1-2.2,2.19v4.28c0,1.34.57,1.99,1.76,1.99h34.9c1.18,0,1.75-.65,1.75-1.99v-4.28c0-1.19-1.01-2.19-2.2-2.19h0Zm163.78,33.09c-.04-23.88-44.9-65.24-92.7-91.59C131.47,21.59,68.73,3.67,48.05,15.06,24.5,28.05,11.58,92.95,11.57,143.58c0,51.05,12.17,115.11,36.48,128.52,22.03,12.14,82.05-5.78,138.56-36.93,48.55-26.77,92.66-66.54,92.7-91.59ZM64.61,0c34.8,0,90.55,22,127.62,42.44,21.21,11.69,45.28,28.75,63.9,46.11,17.87,16.65,34.73,37.38,34.76,55.04-.03,16.63-13.53,36.14-35.26,56.06-18.45,16.9-42.41,33.52-63.39,45.09-35.81,19.74-90.39,42.8-126.37,42.8-9.78,0-17.8-1.69-23.86-5.03-15.93-8.78-26.14-32.44-32.17-55.62C3.33,202.01,0,172.1,0,143.58c0-27.9,3.6-57.88,9.87-82.26C17.52,31.63,28.62,12.04,41.99,4.66c5.62-3.1,13.23-4.66,22.62-4.66h0"/>
</svg>